<svg width="2415" height="2415" viewBox="0 0 2415 2415" fill="none" xmlns="http://www.w3.org/2000/svg">
<path d="M1808.13 0H0V1808.43H1808.13V0Z" fill="#00A6A4"/>
<path d="M2414.67 1807.48H1808.2V2414.11H2414.67V1807.48Z" fill="#00A6A4"/>
<path fill-rule="evenodd" clip-rule="evenodd" d="M1261.1 1384.76L1174.8 1544.25L1043.68 1526.12L995.659 1567.97L888.26 1554.48L888.319 1467.21L822.762 1414.55L865.139 1324.19L789.776 1282.82L750.489 1328.29L711.262 1286.44L688.082 1230.68L441.902 918.659L402.734 789.545L457.534 606.812L404.399 548.913L576.879 404.403L507.221 324.39L667.339 184.992L776.76 255.791L858.839 243.426L938.839 261.022L1015.75 323.498L1065.32 302.871L1332.06 332.712L1354.35 473.418L1401.36 533.814L1272.75 609.189L1256.22 674.222L1192.21 642.716L1136.46 665.9L1147.81 588.503L1072.98 583.272L1025.91 697.346L1186.98 804.822L1290.22 790.971L1391.44 719.697L1422.4 706.857L1407.9 916.459L1350.61 918.54L1263.77 1041.89L1269.95 1213.86L1261.1 1384.76Z" fill="white"/>
</svg>
